<?xml version="1.0" encoding="UTF-8"?>
<!-- Do not edit this file with editors other than draw.io -->
<!DOCTYPE svg PUBLIC "-//W3C//DTD SVG 1.1//EN" "http://www.w3.org/Graphics/SVG/1.1/DTD/svg11.dtd">
<svg xmlns="http://www.w3.org/2000/svg" xmlns:xlink="http://www.w3.org/1999/xlink" version="1.1" width="121px" height="121px" viewBox="-0.5 -0.5 121 121" content="&lt;mxfile host=&quot;Electron&quot; agent=&quot;Mozilla/5.0 (Windows NT 10.0; Win64; x64) AppleWebKit/537.36 (KHTML, like Gecko) draw.io/24.7.5 Chrome/126.0.6478.183 Electron/31.3.0 Safari/537.36&quot; version=&quot;24.7.5&quot; scale=&quot;1&quot; border=&quot;0&quot;&gt;&#10;  &lt;diagram name=&quot;Страница — 1&quot; id=&quot;h6dsQ0oaK6Hz9cKg9uJg&quot;&gt;&#10;    &lt;mxGraphModel dx=&quot;1050&quot; dy=&quot;621&quot; grid=&quot;1&quot; gridSize=&quot;10&quot; guides=&quot;1&quot; tooltips=&quot;1&quot; connect=&quot;1&quot; arrows=&quot;1&quot; fold=&quot;1&quot; page=&quot;1&quot; pageScale=&quot;1&quot; pageWidth=&quot;827&quot; pageHeight=&quot;1169&quot; math=&quot;0&quot; shadow=&quot;0&quot;&gt;&#10;      &lt;root&gt;&#10;        &lt;mxCell id=&quot;0&quot; /&gt;&#10;        &lt;mxCell id=&quot;1&quot; parent=&quot;0&quot; /&gt;&#10;        &lt;mxCell id=&quot;2&quot; value=&quot;&quot; style=&quot;dashed=0;outlineConnect=0;html=1;align=center;labelPosition=center;verticalLabelPosition=bottom;verticalAlign=top;shape=mxgraph.weblogos.protopage;fillColor=#D4E1F5;fontColor=#ffffff;strokeColor=#99CCFF;gradientColor=none;&quot; vertex=&quot;1&quot; parent=&quot;1&quot;&gt;&#10;          &lt;mxGeometry x=&quot;260&quot; y=&quot;150&quot; width=&quot;120&quot; height=&quot;120&quot; as=&quot;geometry&quot; /&gt;&#10;        &lt;/mxCell&gt;&#10;      &lt;/root&gt;&#10;    &lt;/mxGraphModel&gt;&#10;  &lt;/diagram&gt;&#10;&lt;/mxfile&gt;&#10;"><defs/><g><g data-cell-id="0"><g data-cell-id="1"><g data-cell-id="qqZmOAjce54zoGwX09P--2"><g><path d="M 52.92 91.49 C 48.77 95.77 44.68 100.06 38.01 103.98 C 30.28 108.49 24.81 109.1 16.99 102.96 C 13.03 99.6 9.45 95.08 7.14 86.67 C 5.89 81.6 6.37 78.12 10.66 73.84 C 14.09 70.32 18.64 66.48 24.66 62.22 C 16.57 56.73 10.17 51.51 5.4 46.57 C 1.67 42.56 0 37.93 2.7 31.94 C 5.15 27.69 8.2 25.07 11.38 22.8 C 15.84 20.4 21.27 20.37 26.83 22.8 C 30.9 24.55 36.45 29.36 42.15 34.51 C 42.31 23.92 43.75 15.2 48.12 8.33 C 53.46 0.9 60.68 0 68.79 2.16 C 77.71 4.96 83.16 10.83 84.42 19.01 C 85.13 27.8 83.68 32.19 81.55 38.39 C 87.93 37.07 92.3 36.96 96.32 37.07 C 101.49 37.44 105.65 39.47 107.88 42.38 C 111.85 47.5 114.45 52.11 116.03 56.33 C 120 69.63 111.83 78.74 100.58 78.7 L 81.67 78.71 C 86.13 83.86 89.97 89.41 92.22 96 C 93.31 100.43 91.33 110.38 85.24 115.29 C 79.11 120 69.28 118.39 63.46 112.32 C 59.6 107.34 55.88 98.84 52.92 91.49 Z" fill="#1e0609" stroke="none" pointer-events="all"/><path d="M 73.95 101.92 C 69.46 103.16 66.52 101.29 63.7 97.1 C 60.01 91.24 58.33 84.71 56.51 78.23 C 55.93 76.06 54.79 72.8 51.68 71.68 C 48.47 71.11 45.55 73.33 42.71 76.28 C 36.45 82.49 33.58 87 26.98 90.43 C 23.03 92.51 18.63 92.29 15.94 87.25 C 14.32 84.29 13.14 80.7 18.52 75.81 C 24.07 71.05 29.14 69.86 31.98 67.97 C 35.79 65.27 37.53 63.18 37.63 60.69 C 37.6 58.69 37.05 56.08 32.71 53.17 C 24.2 47.95 20.04 47.9 11.64 40.86 C 8.05 37.57 8.68 34.46 11.06 31.43 C 14.21 27.84 18.04 27.62 21.56 29.55 C 28.27 32.89 31.69 38.02 38.61 41.34 C 41.32 42.64 44.51 43.02 46.92 41.68 C 50.12 39.35 50.52 36.3 50.82 32.97 C 51.2 25.07 52.93 15.66 56.34 11.75 C 59.6 7.96 62.29 8.29 65.87 8.91 C 69.72 9.85 71.45 12.63 70.95 16.75 C 70.2 24.05 67.17 28.78 65.53 36.09 C 64.68 39.97 64.38 44.16 66.02 46.3 C 67.41 48.36 71.82 48.02 74.62 47.55 C 81.76 46.73 90.55 43.96 95.82 44.47 C 99.52 44.82 103.79 46 104.27 51.64 C 104.5 55.32 103.25 57.94 98.31 59.63 C 91.8 61.7 83.74 60.97 76.08 60.69 C 72.53 60.48 68.88 61 68.07 62.71 C 66.91 64.97 68.03 68.15 69.02 70.8 C 72.49 78.97 77.03 83.91 78.72 92.58 C 79.46 96.95 78.47 100.79 73.95 101.92 Z" fill="#ffffff" stroke="none" pointer-events="all"/></g></g></g></g></g></svg>