<?xml version="1.0" encoding="UTF-8"?>
<!-- Do not edit this file with editors other than draw.io -->
<!DOCTYPE svg PUBLIC "-//W3C//DTD SVG 1.1//EN" "http://www.w3.org/Graphics/SVG/1.1/DTD/svg11.dtd">
<svg xmlns="http://www.w3.org/2000/svg" xmlns:xlink="http://www.w3.org/1999/xlink" version="1.1" width="1188px" height="1481px" viewBox="-0.5 -0.5 1188 1481" content="&lt;mxfile host=&quot;Electron&quot; agent=&quot;Mozilla/5.0 (Windows NT 10.0; Win64; x64) AppleWebKit/537.36 (KHTML, like Gecko) draw.io/24.7.5 Chrome/126.0.6478.183 Electron/31.3.0 Safari/537.36&quot; version=&quot;24.7.5&quot; scale=&quot;1&quot; border=&quot;0&quot;&gt;&#10;  &lt;diagram name=&quot;Страница — 1&quot; id=&quot;SOyIoqeSxvmFYh3way9Y&quot;&gt;&#10;    &lt;mxGraphModel dx=&quot;3827&quot; dy=&quot;2943&quot; grid=&quot;1&quot; gridSize=&quot;10&quot; guides=&quot;1&quot; tooltips=&quot;1&quot; connect=&quot;1&quot; arrows=&quot;1&quot; fold=&quot;1&quot; page=&quot;1&quot; pageScale=&quot;1&quot; pageWidth=&quot;827&quot; pageHeight=&quot;1169&quot; math=&quot;0&quot; shadow=&quot;0&quot;&gt;&#10;      &lt;root&gt;&#10;        &lt;mxCell id=&quot;0&quot; /&gt;&#10;        &lt;mxCell id=&quot;1&quot; parent=&quot;0&quot; /&gt;&#10;        &lt;mxCell id=&quot;2&quot; value=&quot;&quot; style=&quot;sketch=0;pointerEvents=1;shadow=0;dashed=0;html=1;strokeColor=#1A1A1A;fillColor=#1A1A1A;labelPosition=center;verticalLabelPosition=bottom;verticalAlign=top;outlineConnect=0;align=center;shape=mxgraph.office.concepts.documents;fontColor=#000000;textShadow=1;&quot; vertex=&quot;1&quot; parent=&quot;1&quot;&gt;&#10;          &lt;mxGeometry x=&quot;-454&quot; y=&quot;-1120&quot; width=&quot;1187&quot; height=&quot;1480&quot; as=&quot;geometry&quot; /&gt;&#10;        &lt;/mxCell&gt;&#10;      &lt;/root&gt;&#10;    &lt;/mxGraphModel&gt;&#10;  &lt;/diagram&gt;&#10;&lt;/mxfile&gt;&#10;"><defs/><g><g data-cell-id="0"><g data-cell-id="1"><g data-cell-id="_2d9Xp1CVg2vxjEeI6Gi-8"><g><rect x="0" y="0" width="1187" height="1480" fill="none" stroke="none" pointer-events="all"/><path d="M 114.87 1295 L 0 1295 L 0 0 L 708.37 0 L 823.5 123.61 L 670.08 123.61 L 670.08 61.67 L 57.44 61.67 L 57.44 1233.33 L 114.87 1233.33 Z M 421.19 863.06 L 421.19 801.67 L 938.11 801.67 L 938.11 863.06 Z M 421.19 1027.5 L 421.19 966.11 L 938.11 966.11 L 938.11 1027.5 Z M 421.19 1192.22 L 421.19 1130.56 L 938.11 1130.56 L 938.11 1192.22 Z M 229.74 1418.33 L 1129.56 1418.33 L 1129.56 575.56 L 842.39 575.56 L 842.39 246.67 L 229.74 246.67 Z M 172.31 1480 L 172.31 185 L 880.68 185 L 1187 513.89 L 1187 1480 Z" fill="#1a1a1a" stroke="#1a1a1a" stroke-miterlimit="10" pointer-events="all"/></g></g></g></g></g></svg>